# xmcd
#
# Track frame offsets:
#	150
#	16715
#	38647
#	57340
#	78530
#	94292
#	111217
#	122355
#	135882
#	171182
#
# Disc length: 2434 seconds
#
# Revision: 1
# Processed by: cddbd v1.4PL0 Copyright (c) Steve Scherf et al.
# Submitted via: EasyCDDAExtractor 5.0.7
#
DISCID=7209800a
DTITLE=Vagn and Vagabonderne - Årene Rinder
DYEAR=1900
DGENRE=Country
TTITLE0=Proff'ens Fø'selsda'
TTITLE1=Pigen and FN-soldaten
TTITLE2=Hvide Sande
TTITLE3=Countryfolkets Hus
TTITLE4=Velkommen Vinter
TTITLE5=Pampernes Sang
TTITLE6=Broderfolksbroen
TTITLE7=Lystfiskerdrømmen
TTITLE8=Medley - Snuske, Pigen På Broen, Børges Burger Bar, Fiskernes Sang, De
TTITLE8=n Navnløse Blomst
TTITLE9=Den 9.April 1940
EXTD=
EXTT0=
EXTT1=
EXTT2=
EXTT3=
EXTT4=
EXTT5=
EXTT6=
EXTT7=
EXTT8=
EXTT9=
PLAYORDER=
